HIERARCHY
ROOT Yihan_28_06:Solving:Hips
{
	OFFSET 0.000000 0.000000 0.000000
	CHANNELS 6 Xposition Yposition Zposition Xrotation Yrotation Zrotation
	JOINT Yihan_28_06:Solving:Spine
	{
		OFFSET 0.000000 -10.933681 1.754050
		CHANNELS 6 Xposition Yposition Zposition Xrotation Yrotation Zrotation
		JOINT Yihan_28_06:Solving:Spine1
		{
			OFFSET 0.000000 -9.267541 1.634120
			CHANNELS 6 Xposition Yposition Zposition Xrotation Yrotation Zrotation
			JOINT Yihan_28_06:Solving:Spine2
			{
				OFFSET 0.000000 -9.374699 0.820182
				CHANNELS 6 Xposition Yposition Zposition Xrotation Yrotation Zrotation
				JOINT Yihan_28_06:Solving:Spine3
				{
					OFFSET 0.000000 -9.410507 0.000000
					CHANNELS 6 Xposition Yposition Zposition Xrotation Yrotation Zrotation
					JOINT Yihan_28_06:Solving:Neck
					{
						OFFSET 0.000000 -12.099224 -1.209920
						CHANNELS 6 Xposition Yposition Zposition Xrotation Yrotation Zrotation
						JOINT Yihan_28_06:Solving:Neck1
						{
							OFFSET 0.000000 -7.349789 -0.643021
							CHANNELS 6 Xposition Yposition Zposition Xrotation Yrotation Zrotation
							JOINT Yihan_28_06:Solving:Head
							{
								OFFSET 0.000000 -7.265778 -1.281152
								CHANNELS 6 Xposition Yposition Zposition Xrotation Yrotation Zrotation
								JOINT Yihan_28_06:Solving:HeadEnd
								{
									OFFSET 0.000000 -9.728081 0.000002
									CHANNELS 6 Xposition Yposition Zposition Xrotation Yrotation Zrotation
									End Site
									{
										OFFSET 0.000000 -9.728081 0.000002
									}
								}
							}
						}
					}
					JOINT Yihan_28_06:Solving:RightShoulder
					{
						OFFSET 0.000000 -8.642303 -5.270916
						CHANNELS 6 Xposition Yposition Zposition Xrotation Yrotation Zrotation
						JOINT Yihan_28_06:Solving:RightArm
						{
							OFFSET -17.619331 -0.000004 0.000000
							CHANNELS 6 Xposition Yposition Zposition Xrotation Yrotation Zrotation
							JOINT Yihan_28_06:Solving:RightForeArm
							{
								OFFSET -29.732449 -0.000008 0.000000
								CHANNELS 6 Xposition Yposition Zposition Xrotation Yrotation Zrotation
								JOINT Yihan_28_06:Solving:RightHand
								{
									OFFSET -23.617275 -0.000008 0.000000
									CHANNELS 6 Xposition Yposition Zposition Xrotation Yrotation Zrotation
									JOINT Yihan_28_06:Solving:RightHandThumb1
									{
										OFFSET -3.546165 2.953053 -2.636890
										CHANNELS 6 Xposition Yposition Zposition Xrotation Yrotation Zrotation
										End Site
										{
											OFFSET -5.198463 0.000000 -5.246530
										}
									}
									JOINT Yihan_28_06:Solving:RightHandMiddle1
									{
										OFFSET -9.456436 -0.000004 0.060618
										CHANNELS 6 Xposition Yposition Zposition Xrotation Yrotation Zrotation
										End Site
										{
											OFFSET -7.385803 -0.000004 0.000000
										}
									}
								}
							}
						}
					}
					JOINT Yihan_28_06:Solving:LeftShoulder
					{
						OFFSET 0.000000 -8.642303 -5.270916
						CHANNELS 6 Xposition Yposition Zposition Xrotation Yrotation Zrotation
						JOINT Yihan_28_06:Solving:LeftArm
						{
							OFFSET 17.619331 -0.000004 0.000000
							CHANNELS 6 Xposition Yposition Zposition Xrotation Yrotation Zrotation
							JOINT Yihan_28_06:Solving:LeftForeArm
							{
								OFFSET 29.732449 -0.000008 0.000000
								CHANNELS 6 Xposition Yposition Zposition Xrotation Yrotation Zrotation
								JOINT Yihan_28_06:Solving:LeftHand
								{
									OFFSET 23.617275 -0.000008 0.000000
									CHANNELS 6 Xposition Yposition Zposition Xrotation Yrotation Zrotation
									JOINT Yihan_28_06:Solving:LeftHandThumb1
									{
										OFFSET 3.546165 2.953053 -2.636890
										CHANNELS 6 Xposition Yposition Zposition Xrotation Yrotation Zrotation
										End Site
										{
											OFFSET 5.198463 0.000000 -5.246530
										}
									}
									JOINT Yihan_28_06:Solving:LeftHandMiddle1
									{
										OFFSET 9.456436 -0.000004 0.060618
										CHANNELS 6 Xposition Yposition Zposition Xrotation Yrotation Zrotation
										End Site
										{
											OFFSET 7.385803 -0.000004 0.000000
										}
									}
								}
							}
						}
					}
				}
			}
		}
	}
	JOINT Yihan_28_06:Solving:RightUpLeg
	{
		OFFSET -12.221851 0.000000 0.000000
		CHANNELS 6 Xposition Yposition Zposition Xrotation Yrotation Zrotation
		JOINT Yihan_28_06:Solving:RightLeg
		{
			OFFSET 0.000000 44.387260 -0.000006
			CHANNELS 6 Xposition Yposition Zposition Xrotation Yrotation Zrotation
			JOINT Yihan_28_06:Solving:RightFoot
			{
				OFFSET 0.000000 37.410240 -0.000006
				CHANNELS 6 Xposition Yposition Zposition Xrotation Yrotation Zrotation
				JOINT Yihan_28_06:Solving:RightForeFoot
				{
					OFFSET 0.000000 4.107742 -0.000000
					CHANNELS 6 Xposition Yposition Zposition Xrotation Yrotation Zrotation
					JOINT Yihan_28_06:Solving:RightToeBase
					{
						OFFSET 0.000000 0.000000 -16.087208
						CHANNELS 6 Xposition Yposition Zposition Xrotation Yrotation Zrotation
						JOINT Yihan_28_06:Solving:RightToeBaseEnd
						{
							OFFSET 0.000000 0.000000 -3.506769
							CHANNELS 6 Xposition Yposition Zposition Xrotation Yrotation Zrotation
							End Site
							{
								OFFSET 0.000000 -3.506767 0.000000
							}
						}
					}
				}
			}
		}
	}
	JOINT Yihan_28_06:Solving:LeftUpLeg
	{
		OFFSET 12.221851 0.000000 0.000000
		CHANNELS 6 Xposition Yposition Zposition Xrotation Yrotation Zrotation
		JOINT Yihan_28_06:Solving:LeftLeg
		{
			OFFSET 0.000000 44.387260 -0.000006
			CHANNELS 6 Xposition Yposition Zposition Xrotation Yrotation Zrotation
			JOINT Yihan_28_06:Solving:LeftFoot
			{
				OFFSET 0.000000 37.410240 -0.000006
				CHANNELS 6 Xposition Yposition Zposition Xrotation Yrotation Zrotation
				JOINT Yihan_28_06:Solving:LeftForeFoot
				{
					OFFSET 0.000000 4.107742 -0.000000
					CHANNELS 6 Xposition Yposition Zposition Xrotation Yrotation Zrotation
					JOINT Yihan_28_06:Solving:LeftToeBase
					{
						OFFSET 0.000000 0.000000 -16.087208
						CHANNELS 6 Xposition Yposition Zposition Xrotation Yrotation Zrotation
						JOINT Yihan_28_06:Solving:LeftToeBaseEnd
						{
							OFFSET 0.000000 0.000000 -3.932585
							CHANNELS 6 Xposition Yposition Zposition Xrotation Yrotation Zrotation
							End Site
							{
								OFFSET 0.000000 -3.932587 0.000000
							}
						}
					}
				}
			}
		}
	}
}
MOTION
Frames: 4
Frame Time: 0.041667
1.988280 -42.556538 -87.922745 145.580865 -15.017021 18.011851 0.000004 -10.933674 1.754047 21.200410 -0.199087 2.751687 0.000002 -9.267547 1.634122 19.240283 -0.047176 2.678108 0.000000 -9.374707 0.820178 26.649923 -5.786732 -0.094847 -0.000000 -9.410497 0.000018 -8.961096 -0.830358 0.363549 -0.000003 -12.099216 -1.209918 -18.297640 -1.771598 12.594760 -0.000001 -7.349785 -0.643032 3.259993 19.905570 -18.154467 -0.000004 -7.265777 -1.281143 0.549224 2.040647 -3.992010 -0.000000 -9.728073 0.000006 0.000000 -0.000000 0.000002 -0.000008 -8.642303 -5.270929 0.000004 8.443420 20.062069 -17.619333 0.000010 -0.000009 -39.346684 -48.043472 -90.112824 -29.732462 0.000002 -0.000008 -158.111721 -47.619440 -163.470906 -23.617298 -0.000010 -0.000006 -5.451620 -10.844274 -26.897217 -3.546176 2.953061 -2.636881 -0.000000 -0.000000 0.000006 -9.456453 0.000012 0.060621 0.000000 0.000001 0.000007 -0.000005 -8.642315 -5.270936 0.000011 -5.113754 -26.208824 17.619335 -0.000006 0.000005 -46.350350 66.957062 97.283744 29.732450 0.000001 0.000012 -107.954582 13.465505 144.299153 23.617289 -0.000011 -0.000000 0.010945 0.444555 -1.410064 3.546160 2.953043 -2.636887 -0.000002 -0.000009 -0.000007 9.456433 0.000004 0.060620 0.000004 -0.000004 -0.000004 -12.221848 0.000005 0.000015 -71.536218 -0.823786 -4.063186 0.000001 44.387257 -0.000001 26.364412 0.000001 0.000000 -0.000001 37.410248 -0.000007 -5.662989 19.069721 5.904997 0.000004 4.107742 0.000001 -0.000000 0.000001 0.000000 0.000001 0.000002 -16.087212 10.350737 -0.000001 0.000000 0.000001 0.000008 -3.506775 -0.000000 0.000000 -0.000000 12.221855 0.000009 -0.000002 -67.390628 -5.497299 -1.592124 0.000011 44.387283 -0.000003 21.823356 0.000001 -0.000000 0.000002 37.410252 -0.000007 -2.321907 12.488627 14.887622 -0.000004 4.107743 -0.000001 -0.000000 -0.000003 0.000003 -0.000000 0.000005 -16.087212 -9.517101 -0.000001 0.000001 -0.000001 -0.000007 -3.932580 0.000003 0.000001 -0.000001 
1.974611 -42.554787 -87.897285 145.815987 -14.966020 18.046844 0.000003 -10.933688 1.754060 21.187015 -0.194394 2.773001 0.000001 -9.267538 1.634120 19.248105 -0.053677 2.702600 0.000004 -9.374704 0.820167 26.676788 -5.886458 -0.073865 -0.000006 -9.410527 -0.000021 -8.996588 -0.848035 0.404436 0.000003 -12.099237 -1.209938 -18.208502 -1.844357 12.587493 -0.000001 -7.349792 -0.643008 3.163791 19.806504 -18.377070 0.000000 -7.265779 -1.281147 0.513118 2.042717 -4.037442 0.000002 -9.728073 0.000011 0.000001 0.000002 -0.000001 0.000006 -8.642319 -5.270925 0.000009 8.443421 20.146352 -17.619329 0.000002 0.000016 -38.914497 -48.392457 -89.956631 -29.732445 0.000012 -0.000006 -156.234253 -47.126707 -162.115168 -23.617298 -0.000018 -0.000005 -5.433105 -10.854928 -26.795800 -3.546139 2.953058 -2.636878 0.000002 0.000007 -0.000004 -9.456432 0.000002 0.060623 0.000000 0.000000 -0.000004 -0.000000 -8.642326 -5.270939 0.000020 -5.107834 -26.336282 17.619324 -0.000004 0.000006 -46.786058 66.997148 97.602153 29.732454 -0.000027 -0.000007 -107.911101 13.461870 144.236001 23.617277 -0.000009 -0.000005 0.025174 0.785502 -1.836576 3.546152 2.953063 -2.636890 0.000006 -0.000005 0.000001 9.456444 0.000021 0.060617 0.000004 -0.000003 -0.000001 -12.221851 -0.000014 0.000010 -71.917309 -0.810132 -4.039960 -0.000003 44.387272 -0.000006 26.658688 0.000004 0.000001 -0.000003 37.410229 -0.000000 -5.728064 19.051834 5.905026 0.000001 4.107750 0.000012 -0.000000 0.000000 -0.000000 -0.000002 0.000004 -16.087210 10.313014 -0.000002 0.000000 0.000001 -0.000008 -3.506773 0.000000 -0.000000 0.000000 12.221855 -0.000007 -0.000003 -67.714666 -5.486728 -1.581082 -0.000001 44.387283 -0.000007 22.011331 0.000006 -0.000001 0.000002 37.410255 -0.000006 -2.382391 12.481232 14.920229 -0.000001 4.107749 -0.000001 -0.000000 -0.000002 -0.000001 0.000002 0.000029 -16.087214 -9.554707 0.000002 0.000001 -0.000004 -0.000015 -3.932583 0.000001 0.000001 0.000001 
1.958855 -42.554317 -87.869110 146.041971 -14.913325 18.060736 -0.000005 -10.933670 1.754067 21.195907 -0.179348 2.812509 0.000001 -9.267536 1.634114 19.265192 -0.065967 2.750381 0.000002 -9.374709 0.820185 26.706612 -5.983439 -0.060956 0.000000 -9.410507 -0.000014 -9.031002 -0.871915 0.435914 -0.000002 -12.099236 -1.209919 -18.126077 -1.927605 12.577083 -0.000005 -7.349791 -0.643021 3.040807 19.693706 -18.599233 0.000002 -7.265778 -1.281160 0.485365 2.051954 -4.114678 -0.000002 -9.728073 0.000019 0.000000 -0.000002 0.000002 0.000002 -8.642307 -5.270921 0.000013 8.388941 20.192167 -17.619335 0.000003 -0.000017 -38.679897 -48.544022 -89.781798 -29.732449 0.000004 0.000007 -154.404923 -46.597910 -160.811108 -23.617279 0.000001 -0.000001 -5.345021 -10.559582 -27.046125 -3.546164 2.953013 -2.636889 -0.000006 0.000005 0.000003 -9.456447 -0.000001 0.060616 -0.000004 0.000003 0.000006 0.000003 -8.642319 -5.270927 0.000021 -5.094666 -26.480727 17.619331 -0.000008 -0.000002 -47.202529 67.030261 97.925904 29.732454 -0.000003 -0.000006 -107.877258 13.460648 144.183518 23.617285 -0.000008 0.000001 0.048886 1.202540 -2.328430 3.546141 2.953069 -2.636889 -0.000004 -0.000002 -0.000002 9.456439 0.000012 0.060616 0.000003 -0.000003 -0.000006 -12.221854 0.000007 0.000026 -72.300845 -0.866325 -4.024003 0.000006 44.387253 0.000003 26.964084 0.000001 0.000001 0.000004 37.410225 -0.000004 -5.803288 19.079800 5.883295 -0.000001 4.107742 -0.000003 -0.000000 0.000000 -0.000000 0.000000 0.000008 -16.087215 10.313856 0.000000 -0.000000 0.000001 0.000000 -3.506774 0.000000 0.000001 -0.000000 12.221846 0.000012 0.000014 -68.033185 -5.477241 -1.562592 -0.000002 44.387253 -0.000014 22.209077 0.000001 0.000000 0.000001 37.410248 -0.000001 -2.445435 12.443870 14.955080 -0.000005 4.107743 0.000002 -0.000001 0.000001 0.000001 -0.000003 0.000014 -16.087217 -9.561071 0.000002 -0.000000 -0.000006 -0.000007 -3.932587 0.000003 -0.000002 -0.000001 
1.942991 -42.567478 -87.836533 146.309783 -14.851321 18.069557 -0.000001 -10.933678 1.754033 21.199691 -0.172097 2.852173 0.000002 -9.267550 1.634118 19.257932 -0.080350 2.799591 0.000000 -9.374705 0.820179 26.742501 -6.082607 -0.054356 0.000002 -9.410503 -0.000019 -9.031767 -0.888662 0.440788 -0.000001 -12.099218 -1.209911 -18.143545 -2.035374 12.593901 0.000003 -7.349795 -0.643034 2.942769 19.588238 -18.809923 0.000004 -7.265780 -1.281137 0.466382 2.058679 -4.185830 -0.000001 -9.728073 0.000026 0.000000 -0.000001 -0.000004 -0.000005 -8.642288 -5.270912 0.000009 8.539282 20.055382 -17.619337 0.000000 -0.000006 -38.575235 -48.929747 -89.508167 -29.732450 -0.000011 0.000009 -152.455368 -46.090622 -159.406725 -23.617290 -0.000013 -0.000010 -5.261946 -10.277182 -27.303427 -3.546142 2.953033 -2.636882 -0.000006 -0.000009 -0.000000 -9.456452 -0.000017 0.060620 -0.000007 -0.000003 -0.000001 -0.000013 -8.642300 -5.270916 0.000016 -5.115825 -26.602257 17.619331 -0.000008 -0.000003 -47.706809 67.039290 98.278649 29.732450 -0.000011 -0.000001 -107.875291 13.485806 144.130461 23.617289 -0.000015 0.000001 0.075087 1.587403 -2.708853 3.546180 2.953050 -2.636880 -0.000007 0.000005 -0.000001 9.456470 0.000012 0.060622 -0.000001 -0.000001 -0.000005 -12.221851 0.000006 -0.000022 -72.749492 -0.985558 -4.005439 0.000001 44.387272 -0.000007 27.292370 -0.000000 0.000001 0.000002 37.410244 -0.000007 -5.878920 19.147945 5.839287 -0.000001 4.107750 0.000001 -0.000000 0.000001 -0.000000 0.000000 0.000013 -16.087212 10.285925 -0.000000 -0.000000 0.000001 -0.000000 -3.506774 -0.000001 -0.000000 0.000000 12.221852 0.000001 -0.000009 -68.419521 -5.447672 -1.527738 -0.000002 44.387291 -0.000005 22.448791 0.000005 0.000001 0.000009 37.410244 -0.000009 -2.505559 12.383241 14.962510 -0.000005 4.107750 -0.000001 -0.000000 -0.000002 0.000002 0.000006 0.000005 -16.087206 -9.609683 0.000000 0.000002 -0.000004 -0.000014 -3.932577 0.000002 0.000001 0.000001 
